<svg xmlns="http://www.w3.org/2000/svg" viewBox="0 0 169.74 43.1"><path d="M12.19 4.6c2.7 0 5.19.87 7.21 2.37-1.4 1.27-2.52 2.84-3.29 4.6a6.519 6.519 0 0 0-3.92-1.3 6.521 6.521 0 0 0 0 13.04c2 0 3.83-.84 5.25-2.22 2.92-2.83 5.67-6.18 8.7-8.94 1.67-1.84 5.89.03 6.43 1.54L20.69 26.16c-2.16 2.26-5.48 2.84-8.5 2.84C5.46 29 0 23.54 0 16.8 0 10.06 5.46 4.6 12.19 4.6z" fillRule="evenodd" clip-rule="evenodd" fill="#af4c2b"/><path d="M28.35 4.6c6.73 0 12.19 5.46 12.19 12.19 0 6.75-5.46 12.21-12.19 12.21-2.44 0-4.73-.73-6.65-1.97l4.03-4.25c.79.35 1.68.54 2.62.54a6.521 6.521 0 0 0 0-13.04c-2.75 0-3.95 1.78-6.05 4.08-1.19 1.21-3.02 3.11-5.64 5.97-.33-1.11-.51-2.3-.51-3.52.01-6.75 5.47-12.21 12.2-12.21zm24.39 0c-6.73 0-12.19 5.46-12.19 12.19 0 6.75 5.46 12.21 12.19 12.21 2.46 0 4.75-.73 6.65-1.97l-4.03-4.25c-.79.35-1.68.54-2.62.54a6.521 6.521 0 0 1 0-13.04c2.75 0 3.95 1.78 6.06 4.08 1.17 1.21 3 3.11 5.62 5.97.33-1.11.52-2.3.52-3.52.01-6.75-5.46-12.21-12.2-12.21z"  fillRule="evenodd" clip-rule="evenodd" fill="#7a983d"/><path d="M75.2 18.49c1.49 1.38 2.98 2.76 4.45 4.06C77.6 26.38 73.55 29 68.9 29c-3.02 0-6.33-.59-8.48-2.84L48.51 13.7c.54-1.51 4.76-3.38 6.43-1.54 3.03 2.76 5.62 6.37 8.72 8.94 1.51 1.27 3.24 2.22 5.24 2.22 3.02 0 5.56-2.03 6.3-4.83z" fillRule="evenodd" clip-rule="evenodd" fill="#1d4374"/><path d="M38.43 7.11c2.22-1.98 2.83-1.59 4.27-.08a13.7 13.7 0 0 1 2-1.7c.67-.46 1.38-.86 2.14-1.21C44.51 1.85 42.65.71 40.78.71V.7c-1.89 0-3.87 1.16-6.45 3.51.75.33 1.44.75 2.1 1.21.73.49 1.4 1.06 2 1.69zm4 .65c-1.32-1.38-1.73-1.79-3.78.1l-.26.24-.24-.25c-.64-.7-1.33-1.32-2.11-1.86-.77-.53-1.59-.99-2.46-1.34l-.51-.21.4-.38C36.37 1.35 38.59 0 40.78 0c2.19 0 4.29 1.35 6.92 4l.38.38-.49.19c-.89.37-1.71.81-2.49 1.35-.78.54-1.49 1.16-2.14 1.86l-.26.27-.25-.27h-.02v-.02zM89.7 19.22c-1.78 0-3.3-.6-4.56-1.84-1.24-1.22-1.87-2.73-1.87-4.52 0-1.73.64-3.24 1.87-4.51 1.25-1.29 2.78-1.92 4.56-1.92h14.11v5.14H89.7c-.86 0-1.3.43-1.3 1.29 0 .35.13.64.37.87.24.24.56.37.94.37h7.67c1.75 0 3.24.64 4.49 1.92 1.25 1.27 1.87 2.78 1.87 4.52 0 1.78-.62 3.3-1.87 4.54-1.25 1.25-2.75 1.89-4.49 1.89h-14.1v-5.21h14.1c.3 0 .57-.13.84-.37.25-.24.4-.52.4-.86 0-.35-.14-.65-.4-.92-.27-.25-.54-.4-.84-.4H89.7zm28.36-7.65v15.4h-5.13v-15.4h-7.67V6.43h20.46v5.14h-7.66zm19.48-5.14c2.79 0 5.19 1.02 7.19 3.03 2 2.03 3 4.45 3 7.24 0 2.84-1 5.27-3 7.27s-4.4 3-7.19 3c-2.86 0-5.27-1-7.27-3s-3-4.43-3-7.27c0-2.79 1-5.21 3-7.24 2-2.01 4.42-3.03 7.27-3.03zm0 5.14c-1.46 0-2.67.49-3.65 1.51-1 1.02-1.49 2.22-1.49 3.62 0 1.44.49 2.67 1.49 3.65.98.98 2.19 1.48 3.65 1.48 1.4 0 2.59-.49 3.6-1.48 1.02-.98 1.52-2.21 1.52-3.65 0-1.4-.51-2.6-1.52-3.62-1.01-1.01-2.2-1.51-3.6-1.51zm16.86 0v5.13h7.67c.71 0 1.33-.24 1.84-.73.51-.48.76-1.08.76-1.79 0-.73-.25-1.35-.76-1.86-.51-.49-1.13-.75-1.84-.75h-7.67zm0 10.26v5.14h-5.13V6.43h12.8c2.13 0 3.92.76 5.43 2.29 1.49 1.51 2.24 3.3 2.24 5.38 0 2.17-.75 4-2.24 5.49-1.51 1.49-3.3 2.24-5.43 2.24h-7.67zM3.21 34.43v.84a1.22 1.22 0 0 0-.59-.17c-.22 0-.41.06-.59.19-.17.13-.32.32-.41.54-.17.41-.25 1.08-.25 2 0 1.68.43 2.54 1.3 2.54.16 0 .35-.05.54-.14v.84c-.22.13-.48.19-.75.19-1.38 0-2.08-1.13-2.08-3.4 0-1.14.14-1.98.41-2.56.35-.71.9-1.06 1.65-1.06.26 0 .51.07.77.19zm2 2.08c.49 0 .86.19 1.1.57.24.4.35 1 .35 1.83 0 1.56-.48 2.33-1.44 2.33-.49 0-.86-.19-1.08-.57-.24-.38-.35-.98-.35-1.79 0-.79.11-1.38.33-1.76.21-.4.59-.61 1.09-.61zm.01.77c-.19 0-.33.11-.41.35-.08.24-.13.65-.13 1.24s.05 1 .13 1.24.22.35.41.35c.21 0 .35-.11.43-.35.08-.24.13-.64.13-1.21 0-.6-.05-1.03-.13-1.25-.08-.25-.22-.37-.43-.37zm2.23-.69h.84v.56c.13-.22.27-.38.41-.49.14-.1.32-.14.52-.14.22 0 .4.05.54.14.13.11.24.27.32.49.13-.22.25-.4.4-.49.16-.1.33-.14.56-.14.38 0 .65.11.83.37.11.14.17.35.17.64v3.65h-.86v-3.02c0-.35-.03-.57-.1-.7-.06-.11-.17-.17-.37-.17-.22 0-.38.1-.46.27-.03.1-.06.3-.06.6v3.02h-.87v-3.02c0-.33-.03-.56-.11-.68-.06-.13-.19-.19-.38-.19-.21 0-.35.08-.44.25-.06.1-.1.3-.1.62v3.02h-.84v-4.59zm5.22 0h.41v-1.6c0-.32.02-.54.05-.68.03-.16.1-.29.19-.4.16-.24.43-.35.79-.35.17 0 .37.03.59.11v.9a.763.763 0 0 0-.37-.11c-.21 0-.33.08-.37.25-.02.06-.03.29-.03.65v1.22h.71v.67h-.71v3.91h-.86v-3.91h-.41v-.66zm3.82-.08c.49 0 .86.19 1.08.57.24.4.35 1 .35 1.83 0 1.56-.48 2.33-1.43 2.33-.49 0-.86-.19-1.1-.57-.24-.38-.35-.98-.35-1.79 0-.79.11-1.38.33-1.76.25-.4.62-.61 1.12-.61zm.02.77c-.21 0-.35.11-.43.35-.08.24-.13.65-.13 1.24s.05 1 .13 1.24.22.35.43.35c.19 0 .33-.11.41-.35.1-.24.13-.64.13-1.21 0-.6-.03-1.03-.11-1.25-.1-.25-.22-.37-.43-.37zm2.21-.69h.86v.57c.24-.44.56-.67.98-.68v.87h-.14c-.29 0-.49.08-.64.22a.69.69 0 0 0-.17.3c-.03.11-.03.29-.03.51v2.78h-.86v-4.57zm2.71-1.28h.84v1.29h.48v.65h-.48v3.92h-.84v-3.92h-.46v-.65h.46v-1.29zm6.56-.88v.84a1.22 1.22 0 0 0-.59-.17c-.22 0-.41.06-.59.19-.17.13-.32.32-.41.54-.17.41-.25 1.08-.25 2 0 1.68.43 2.54 1.3 2.54.16 0 .35-.05.54-.14v.84c-.22.13-.48.19-.75.19-1.38 0-2.08-1.13-2.08-3.4 0-1.14.14-1.98.41-2.56.35-.71.9-1.06 1.65-1.06.26 0 .51.07.77.19zm2 2.08c.49 0 .86.19 1.1.57.24.4.35 1 .35 1.83 0 1.56-.48 2.33-1.44 2.33-.49 0-.86-.19-1.1-.57-.22-.38-.35-.98-.35-1.79 0-.79.13-1.38.35-1.76.22-.4.58-.61 1.09-.61zm.01.77c-.19 0-.33.11-.41.35-.1.24-.13.65-.13 1.24s.03 1 .13 1.24c.08.24.22.35.41.35.21 0 .35-.11.43-.35.08-.24.13-.64.13-1.21 0-.6-.05-1.03-.13-1.25-.08-.25-.22-.37-.43-.37zm3.48-.77c.51 0 .87.19 1.1.57.24.4.35 1 .35 1.83 0 1.56-.48 2.33-1.43 2.33-.49 0-.86-.19-1.1-.57s-.35-.98-.35-1.79c0-.79.11-1.38.33-1.76.24-.4.61-.61 1.1-.61zm.03.77c-.21 0-.35.11-.43.35-.08.24-.13.65-.13 1.24s.05 1 .13 1.24.22.35.43.35c.19 0 .33-.11.41-.35.08-.24.13-.64.13-1.21 0-.6-.05-1.03-.13-1.25-.07-.25-.22-.37-.41-.37zm2.21-3.64h.86v7.52h-.86v-7.52zm1.81 2.95h.84v4.57h-.84v-4.57zm.4-1.97c.16 0 .29.06.4.17.11.11.17.25.17.4 0 .17-.06.3-.17.41a.56.56 0 0 1-.4.17c-.17 0-.3-.06-.41-.17s-.17-.24-.17-.41c0-.16.06-.29.17-.4.1-.1.25-.17.41-.17zm1.41 1.97h.84v.52c.13-.22.27-.38.41-.48.14-.08.32-.13.52-.13.19 0 .37.05.51.14.14.08.25.21.32.37.08.16.11.46.11.89v3.25h-.85V38.1c0-.25-.02-.44-.05-.54-.1-.21-.24-.32-.44-.32-.19 0-.33.08-.41.22-.08.14-.11.38-.11.75v2.95h-.84v-4.57zm5.44 0h.84v4.73c0 .49-.03.84-.11 1.05-.08.24-.24.41-.46.54-.24.13-.52.19-.84.19-.46 0-.79-.14-1.02-.41-.21-.25-.3-.54-.3-.89v-.14h.83c0 .49.17.73.54.73.25 0 .41-.11.48-.33.03-.11.05-.3.05-.56v-.89c-.1.21-.19.35-.29.43a.78.78 0 0 1-.54.21c-.17 0-.33-.05-.49-.13-.14-.1-.25-.22-.33-.37-.21-.38-.3-.98-.3-1.81 0-.9.1-1.56.29-1.94.17-.33.44-.49.83-.49.19 0 .33.05.46.13.13.1.25.25.38.49v-.54zm-.55.69c-.17 0-.32.13-.4.37-.08.25-.13.65-.13 1.19 0 .59.05 1.02.13 1.27.1.25.24.38.44.38s.33-.11.41-.33c.06-.24.11-.64.11-1.22 0-.57-.05-.98-.14-1.25-.09-.27-.23-.41-.42-.41zm6.6-2.81v.9c-.29-.21-.54-.3-.76-.3-.22 0-.43.08-.57.24-.17.16-.25.38-.25.67 0 .24.06.44.17.62.1.17.37.46.76.87.37.37.59.65.7.86.19.35.29.73.29 1.13 0 .54-.16.97-.44 1.3-.3.33-.68.51-1.16.51-.38 0-.73-.11-1-.32v-.92c.32.24.62.37.89.37.25 0 .44-.1.59-.25.14-.17.22-.4.22-.68 0-.25-.06-.48-.16-.67-.11-.21-.32-.44-.62-.75-.3-.29-.51-.49-.62-.62-.11-.13-.21-.27-.29-.41-.16-.3-.24-.64-.24-1.02 0-.54.14-.97.41-1.29.29-.3.67-.46 1.14-.46.34-.01.64.07.94.22zm1.05 2.12h.86v4.57h-.86v-4.57zm.41-1.97c.14 0 .29.06.4.17.11.11.16.25.16.4a.566.566 0 0 1-.97.41.55.55 0 0 1-.17-.41c0-.16.06-.29.17-.4.11-.1.25-.17.41-.17zm1.4 1.97h.86v.52c.13-.22.27-.38.41-.48.14-.08.32-.13.52-.13.19 0 .37.05.51.14.14.08.25.21.32.37.06.16.1.46.1.89v3.25h-.84V38.1c0-.25-.02-.44-.06-.54-.08-.21-.22-.32-.43-.32-.19 0-.33.08-.41.22-.08.14-.11.38-.11.75v2.95h-.86v-4.57zm5.56.08v.87a.525.525 0 0 0-.43-.22c-.24 0-.41.11-.52.37-.13.25-.17.64-.17 1.14 0 1.08.22 1.62.68 1.62.14 0 .29-.06.44-.17v.79c-.24.11-.46.17-.68.17-.92 0-1.37-.78-1.37-2.32 0-.94.14-1.59.44-1.98.21-.29.51-.43.92-.43.23 0 .45.05.69.16zm2.47 2.95h.79c-.02.38-.08.68-.17.92-.1.21-.25.38-.46.51-.21.13-.43.19-.7.19-.38 0-.7-.13-.94-.4-.3-.35-.46-1-.46-1.95 0-.81.11-1.4.32-1.79.11-.17.25-.32.44-.43.19-.11.4-.16.62-.16.67 0 1.1.43 1.29 1.29.06.3.1.71.1 1.24h-1.94c.02.52.06.9.16 1.13.08.24.24.35.43.35.35-.01.52-.31.52-.9zm-.03-1.19c-.03-.43-.08-.71-.14-.87-.06-.22-.21-.33-.4-.33-.17 0-.3.08-.37.25-.08.17-.13.48-.17.95h1.08zm3.94-4.11h1.56v6.84h-.89v-6.05h-.67v-.79zm4.43 6.84h-.98l.14-.3c.57-1.11.97-1.97 1.22-2.56-.24.17-.48.27-.71.27-.19 0-.35-.05-.52-.14a.903.903 0 0 1-.38-.37c-.1-.17-.16-.37-.21-.6-.05-.22-.06-.52-.06-.9 0-.87.11-1.48.37-1.83.24-.32.6-.49 1.1-.49.52 0 .9.19 1.13.54.22.37.33.97.33 1.81 0 .7-.06 1.32-.22 1.84-.16.51-.52 1.37-1.11 2.57l-.1.16zm-.07-6.08c-.19 0-.35.11-.43.32-.1.22-.14.56-.14 1.02 0 .48.05.81.14 1.02.08.21.24.32.44.32.19 0 .35-.11.43-.32.1-.21.14-.54.14-1 0-.46-.05-.79-.13-1-.08-.23-.22-.34-.45-.36zm3.96 6.08h-.98l.14-.3c.57-1.11.97-1.97 1.21-2.56-.22.17-.46.27-.7.27-.19 0-.35-.05-.52-.14a.903.903 0 0 1-.38-.37c-.1-.17-.16-.37-.21-.6-.05-.22-.06-.52-.06-.9 0-.87.11-1.48.37-1.83.24-.32.59-.49 1.1-.49.52 0 .9.19 1.13.54.22.37.33.97.33 1.81 0 .7-.08 1.32-.22 1.84-.16.51-.52 1.37-1.11 2.57l-.1.16zm-.07-6.08c-.19 0-.35.11-.43.32-.1.22-.14.56-.14 1.02 0 .48.05.81.14 1.02.08.21.24.32.44.32.19 0 .35-.11.43-.32.1-.21.14-.54.14-1 0-.46-.05-.79-.13-1-.08-.23-.22-.34-.45-.36zm3.96 6.08h-.98l.14-.3c.57-1.11.97-1.97 1.21-2.56-.22.17-.46.27-.7.27-.19 0-.35-.05-.52-.14a.903.903 0 0 1-.38-.37c-.1-.17-.17-.37-.21-.6-.05-.22-.06-.52-.06-.9 0-.87.11-1.48.37-1.83.22-.32.59-.49 1.1-.49.52 0 .9.19 1.13.54.22.37.33.97.33 1.81 0 .7-.08 1.32-.22 1.84-.16.51-.52 1.37-1.11 2.57l-.1.16zm-.07-6.08c-.19 0-.35.11-.43.32-.1.22-.14.56-.14 1.02 0 .48.05.81.13 1.02.1.21.25.32.46.32.19 0 .33-.11.43-.32.1-.21.14-.54.14-1 0-.46-.05-.79-.13-1-.09-.23-.23-.34-.46-.36z"/></svg>