<svg xmlns="http://www.w3.org/2000/svg" viewBox="0 0 46 30"><path d="M21.1 22.52l.62 2.03h-1.24l.62-2.03zM46 0v30H0V0h46zm-8 18.76h4.2V3.2H38v15.56zm-34.2 0h12.54v-3.84H8.2v-2.1h7.42V9.14H8.15V7.19h8.19V3.2H3.8v15.56zm4.31 2.3H3.8v5.64h1.75v-2.3h2.19v-1.14H5.55v-.99h2.56v-1.21zm2.76 0H9.12v5.64h1.75v-5.64zm6.66 0h-1.64v3.12l-2.13-3.12h-1.63v5.64h1.64v-3.1l2.11 3.1h1.64v-5.64zm6.66 5.64l-2.12-5.64h-1.9l-2.12 5.64h1.78l.27-.93h1.98l.28.93h1.83zm5.96-5.64h-1.64v3.12l-2.13-3.12h-1.63v5.64h1.64v-3.1l2.11 3.1h1.64v-5.64zm.48-10.95v8.65h4.51V3.2h-4.56l-3.79 5.89L23 3.2h-4.45v15.56h4.2v-8.6l4.1 5.79 3.78-5.84zm5.97 14.75l-1.53-.46c-.08.36-.2.63-.37.82-.17.19-.42.28-.76.28s-.61-.12-.8-.35c-.19-.23-.29-.66-.29-1.29 0-.5.08-.88.24-1.11.21-.32.51-.48.91-.48.17 0 .33.04.47.11.14.07.26.17.36.31.06.08.12.21.17.38l1.54-.34c-.2-.6-.5-1.04-.91-1.33-.41-.29-.97-.43-1.68-.43-.91 0-1.61.25-2.11.75-.5.5-.74 1.22-.74 2.15 0 .7.14 1.27.42 1.72.28.45.62.76 1.01.94.39.18.89.27 1.5.27.51 0 .92-.07 1.25-.22.33-.15.6-.36.82-.65s.4-.65.5-1.07zm5.6.57h-3.01v-1.11h2.71v-1.15h-2.71v-.9h2.93v-1.2h-4.67v5.64h4.76v-1.28z" fill="#594a7a"/></svg>